<?xml version="1.0" encoding="utf-8"?>
<!-- Uploaded to: SVG Repo, www.svgrepo.com, Generator: SVG Repo Mixer Tools -->
<svg fill="#000000" version="1.1" id="Layer_1" xmlns="http://www.w3.org/2000/svg" xmlns:xlink="http://www.w3.org/1999/xlink" 
	 width="800px" height="800px" viewBox="0 0 260 241" enable-background="new 0 0 260 241" xml:space="preserve">
<polygon points="230.941,22.852 227.355,11.398 207.899,2.141 194.54,5.727 178.267,7.744 158.654,22.067 165.02,30.697 
	157.892,57.347 142.269,57.773 146.73,70.549 135.657,74.965 132.049,95.048 127.566,100.181 114.789,97.043 102.349,107.847 
	87.309,112.599 84.238,131.786 51.334,138.644 26.364,137.053 2,127.684 16.345,151.869 29.054,162.337 28.135,186.32 
	13.431,192.708 8.679,209.497 38.961,212.59 74.017,211.021 86.413,206.852 90.47,219.404 97.732,223.573 105.241,238.859 
	123.015,236.102 123.06,230.387 143.256,232.516 160.829,223.169 144.511,200.419 145.923,190.691 134.873,185.849 146.17,166.595 
	156.323,169.845 172.439,165.138 180.217,150.166 188.174,145.683 194.876,129.41 208.863,111.545 215.43,91.193 201.981,71.401 
	204.761,42.98 226.906,46.364 258,28.527 "/>
</svg>